<svg xmlns="http://www.w3.org/2000/svg" viewBox="0 0 28.29 33.43"><defs><style>.cls-1{fill:#8dc9bb;}</style></defs><g id="Calque_2" data-name="Calque 2"><g id="Calque_1-2" data-name="Calque 1"><circle class="cls-1" cx="13.51" cy="32.94" r="0.49"/><circle class="cls-1" cx="13.51" cy="26.07" r="0.49"/><circle class="cls-1" cx="13.51" cy="29.51" r="0.49"/><path class="cls-1" d="M19,14.78c.31,0,.63,0,.94,0a5.33,5.33,0,0,1,1,0,.09.09,0,0,0,.07,0c.12-.05.12-.05.2,0s0,.05.05.06a0,0,0,0,0,.07,0c0-.13,0-.14.16-.13a8.43,8.43,0,0,1,.87,0,.09.09,0,0,0,.09,0c.15-.09.33,0,.49-.1a.07.07,0,0,1,.1,0s0,.06,0,.09a.52.52,0,0,1-.19.11c-.07,0-.11.07-.11.14s-.06.1-.12.1a1.27,1.27,0,0,0-.34,0,.22.22,0,0,1-.14,0,.41.41,0,0,0-.22,0,.51.51,0,0,1-.32.05.58.58,0,0,0-.32,0,2.61,2.61,0,0,1-.27.06.58.58,0,0,0-.28.07,1.36,1.36,0,0,0,.45,0,7.4,7.4,0,0,1,.94-.05s.07,0,.08,0c-.19.12-.43.08-.64.16,0,0,.08,0,.12,0a.83.83,0,0,1,.22,0c.05,0,.09,0,.09.07s-.05.05-.08.05a.11.11,0,0,0-.11.08c.24,0,.49,0,.73-.08.4-.08.81-.18,1.21-.28q.88-.24,1.77-.54a5.94,5.94,0,0,0,.67-.33c.11,0,.21-.11.32-.15a4.84,4.84,0,0,0,.72-.36,2.5,2.5,0,0,1,.7-.28c.13,0,.27,0,.4-.09l-.48-.14a1.29,1.29,0,0,0-.51-.07l-.06,0c-.35,0-.7.06-1,.06-.18,0-.37,0-.56,0a3.27,3.27,0,0,1-1.2-.18l0,0h0s0,0,0-.08a.08.08,0,0,0-.08,0l0,.06s-.05,0-.07,0-.07-.08-.13,0a.17.17,0,0,1-.12,0,2.32,2.32,0,0,0-.59,0c-.25,0-.5,0-.74,0a2.26,2.26,0,0,0-.58,0,2.5,2.5,0,0,1-.38.06c-.44,0-.88.08-1.32.13-.1.11-.24.08-.36.07a1,1,0,0,0-.35,0s0,0,0,0a.71.71,0,0,1,.37-.1s.06,0,.07,0,0-.05-.06-.06H20s-.08,0-.09-.05,0-.06.06-.08a.58.58,0,0,1,.35-.17.14.14,0,0,0,.13-.08.29.29,0,0,1,.15-.14,3.65,3.65,0,0,0,.54-.32,1.41,1.41,0,0,1,.35-.23.69.69,0,0,0,.19-.1,6.44,6.44,0,0,0,.9-.65,3.22,3.22,0,0,0,.69-.69l.07-.07A4.45,4.45,0,0,0,24,9.8c.2-.27.36-.56.58-.81s.24-.25.35-.38a3.52,3.52,0,0,1,.68-.71s0,0,0-.06c-.25.07-.5.07-.74.13a5.81,5.81,0,0,1-.93.15,2.48,2.48,0,0,0-.76.1c-.12,0-.25.06-.38.09l-.23.07a3,3,0,0,1-.44.23c-.4.16-.79.36-1.18.55a1.4,1.4,0,0,1-.17.09c-.21.11-.4.25-.62.35a.3.3,0,0,0-.19.22.09.09,0,0,0,.09,0c.15-.08.27-.2.42-.28a1.35,1.35,0,0,0,.26-.15.43.43,0,0,1,.23-.1s.05,0,.06,0,.08,0,.13,0a1.24,1.24,0,0,0,.27-.17.19.19,0,0,1,.14,0s.05,0,0,.06a.6.6,0,0,1-.21.24c-.1,0-.21,0-.27.14a.86.86,0,0,1-.2.18s-.05,0-.06,0a1.73,1.73,0,0,1-.41.4,3.3,3.3,0,0,0-.3.22s0,.06,0,.09,0,0,.07,0,.17-.15.3-.13a0,0,0,0,0,0,0c0-.14.18-.19.27-.27a.89.89,0,0,1,.37-.23c.14-.05.2-.22.38-.22s.1-.07.15-.11A.6.6,0,0,1,22,9.36c.06,0,.09,0,.1.06a.69.69,0,0,1-.15.5.19.19,0,0,1-.12.07.63.63,0,0,0-.37.21,1.46,1.46,0,0,1-.21.16,2.7,2.7,0,0,0-.34.25c-.07.06-.18.1-.21.21s-.05,0-.07,0-.16,0-.24,0-.09,0-.11.06a.77.77,0,0,1-.19.37s0,0,0,0a.23.23,0,0,1-.25.15.4.4,0,0,0-.19,0c-.1,0-.1,0-.11-.07s-.05-.12-.13-.08l0,0c-.1.14-.32.12-.39.3,0,0,0,0-.07,0a.21.21,0,0,0-.16.18.41.41,0,0,1-.23.33c-.12.05-.12.14-.15.23s.11,0,.16,0a.05.05,0,0,1,.07,0c0,.1-.09.25-.19.24a.14.14,0,0,0-.17.08.34.34,0,0,1-.2.15c-.18.06-.34.19-.52.25a.08.08,0,0,0-.07.09.56.56,0,0,0,.21-.06,1.11,1.11,0,0,1,.36-.13s.06,0,.08,0a.26.26,0,0,1,.23-.1l.15,0c.15-.08.33-.06.44-.21s.06,0,.09,0,.37-.07.5-.22l.06,0a3.93,3.93,0,0,1,.54-.2s.08-.09.12,0,0,.09-.06.12a.16.16,0,0,1-.1.08.07.07,0,0,0-.07,0c0,.13-.16.16-.28.19s-.05,0-.05.05a.26.26,0,0,0,.15,0L20,12.6s.07,0,.08,0,0,0-.07,0a.57.57,0,0,0-.29.07.34.34,0,0,1-.24,0,.11.11,0,0,0-.11,0c-.11.08-.27.06-.38.16A.11.11,0,0,1,19,13c-.1,0-.17.06-.26.06a0,0,0,0,0,0,0l0,0a.2.2,0,0,0,.13,0,1.11,1.11,0,0,1,.26-.07s.08,0,.1,0,0,.05,0,.07a.13.13,0,0,1-.2.09h0s0,0-.06,0,0,.06,0,.09a.29.29,0,0,0,.2.07s.08,0,.08,0,0,.06-.07.07a2.65,2.65,0,0,0-.3.11l-.63.25a.8.8,0,0,0,.3,0c.13,0,.14,0,.09.14s0,.14-.12.14a1.84,1.84,0,0,0-.52.1c-.24.07-.47.09-.71.14h-.05a0,0,0,0,0,0,0s0,0,.05,0h0c.22,0,.44,0,.66-.08a5.62,5.62,0,0,0,.7-.1,1.84,1.84,0,0,1,.41,0,2,2,0,0,0,.43-.06,1.89,1.89,0,0,1,.53-.08s.09,0,.09-.05a.05.05,0,0,0-.08-.05.65.65,0,0,1-.24,0c-.12,0-.24,0-.35.05a.11.11,0,0,1-.1,0,.57.57,0,0,0-.26,0,.65.65,0,0,1-.24,0s-.08,0-.09-.05,0-.06.06-.07a2.06,2.06,0,0,1,.63-.18,2.77,2.77,0,0,0,.3,0,1.48,1.48,0,0,1,.55-.09,1.33,1.33,0,0,0,.4-.05.37.37,0,0,1,.31,0c.11.07.18,0,.27,0l.12,0c.05,0,.12,0,.12.06a.11.11,0,0,1-.07.14h-.08a2.65,2.65,0,0,1-.56,0,.82.82,0,0,0-.39.11.68.68,0,0,0,.44.08,7.94,7.94,0,0,1,1-.11,2,2,0,0,1,.59,0c.11,0,.21,0,.32,0s.1,0,.13,0,0,.07-.05.11l0,0a.24.24,0,0,1-.18.18.22.22,0,0,0-.19.16c-.06,0-.11-.11-.19,0s-.08,0-.12,0a.15.15,0,0,0-.13,0,.92.92,0,0,1-.43.09c-.28,0-.55.06-.82.06s-.58.06-.87,0h-.08a4.51,4.51,0,0,1-.53.07l-.71,0a.66.66,0,0,0-.38.1,3.73,3.73,0,0,0,.47,0Zm7-.8.12,0a4.34,4.34,0,0,0,.52-.08.65.65,0,0,0,.31-.08.06.06,0,0,1,.06,0c.06,0,.17-.08.19,0s-.12,0-.18.07-.07,0-.1,0-.1.08-.16,0h-.06c-.17.07-.36,0-.52.13s-.13,0-.19,0S26,14,26,14Zm-.72.15c.19,0,.39-.05.58-.11l0,0a0,0,0,0,1,0,.06s-.05.07-.11.05-.27,0-.41,0a.2.2,0,0,1-.11,0l0,0S25.24,14.13,25.26,14.13Zm-1,.18.28-.07a.29.29,0,0,1,.16,0s0,.08,0,.09-.36.14-.55,0C24.16,14.32,24.2,14.32,24.24,14.31Zm-2-4.75c0-.12,0-.2,0-.3s0-.08.08-.08a.28.28,0,0,0,.19-.07s.05,0,.07,0A.42.42,0,0,0,22.9,9,.07.07,0,0,1,23,9a0,0,0,0,1,0,.06c-.06.09-.11.21-.21.26a.87.87,0,0,0-.27.27.18.18,0,0,1-.23,0A.09.09,0,0,1,22.23,9.56ZM20.29,12h.24a.28.28,0,0,1,.33-.22,1,1,0,0,1-.32.22.36.36,0,0,1-.25.08.05.05,0,0,1,0,0ZM18.64,13.9v0h0Zm.27-.06a.86.86,0,0,1-.17,0v0l.15-.06a.06.06,0,0,1,.08,0A.07.07,0,0,1,18.91,13.84Zm4.67.83c0,.07-.08.15-.18.14s-.1,0-.15,0l-.16.05s-.07,0-.08,0a.06.06,0,0,1,0-.07c.08,0,.12-.12.19-.17a.37.37,0,0,1,.32-.06C23.59,14.59,23.61,14.63,23.58,14.67Zm.34-.66a.27.27,0,0,1-.13,0s-.11,0-.12,0,0-.09.1-.1l.11,0a.07.07,0,0,1,.09.05A.09.09,0,0,1,23.92,14Zm-.38-.49a.19.19,0,0,1,.15,0,.94.94,0,0,1,.29.06s0,0,0,.06-.12.09-.17,0-.13,0-.2,0a.08.08,0,0,1-.14-.05A.08.08,0,0,1,23.54,13.52Zm-1.82.26s-.09,0-.09-.06,0-.06.07-.07a.58.58,0,0,1,.41-.05A.44.44,0,0,1,21.72,13.78Zm.68,0h0a.07.07,0,0,1,0-.12.27.27,0,0,1,.13-.07,1.87,1.87,0,0,1,.4,0,2,2,0,0,0,.34,0,.08.08,0,0,1,.1,0s0,.08,0,.12a.13.13,0,0,1-.12.07C22.9,13.7,22.66,13.76,22.4,13.76Zm.52.37c0-.05,0-.07,0-.1s0-.11.07-.11.32-.05.48-.05,0,0,.06,0-.06.07-.1.1-.11.06-.11.14l0,0a3.25,3.25,0,0,1-.54.23l-.06,0C22.76,14.29,22.74,14.11,22.92,14.13Zm-.47.28h0s0,0,0,0h0Z"/><path class="cls-1" d="M.37,13.74c.32.25.63.53,1,.77a9.46,9.46,0,0,0,1,.66,5,5,0,0,0,1.19.43c.27.07.54.15.8.24l.64.22a2.12,2.12,0,0,0,.61.11l.69,0s0-.08,0-.1A.82.82,0,0,0,6,16,1.1,1.1,0,0,1,5.59,16a1.52,1.52,0,0,0-.51-.09c-.06,0-.13,0-.18-.07s-.08,0-.12,0a1.19,1.19,0,0,1-.53-.14h0s0,0,0-.05l0,0h.08a2.07,2.07,0,0,0,.49.07,1.51,1.51,0,0,1,.42.05.94.94,0,0,0,.47.09.62.62,0,0,1,.19,0,1.93,1.93,0,0,0,.34,0,0,0,0,0,0,0,0s0,0,0,0a.6.6,0,0,1-.35,0h-.1a1.7,1.7,0,0,1-.5-.09.4.4,0,0,0-.19,0c-.06,0-.09,0-.13-.08a.31.31,0,0,1,0-.28c-.07,0-.06.06-.08.08s-.13.08-.06.17,0,.07,0,.07-.22,0-.32-.05a.6.6,0,0,0-.23-.06,1.47,1.47,0,0,1-.29,0,.18.18,0,0,1-.15-.19s0-.05,0-.05-.05,0-.06,0a.36.36,0,0,0,0,.09s0,.06-.06,0-.2,0-.27-.06A2,2,0,0,0,3,15.09a0,0,0,0,1,0,0s0,0,0-.05a.41.41,0,0,0,.24-.17s.08,0,.12,0a1.19,1.19,0,0,0,.27.07,1,1,0,0,1,.31,0c.19.07.38.09.56.15l.11,0a1.09,1.09,0,0,1,.56.12.32.32,0,0,0,.32-.05.63.63,0,0,0-.23-.08A2.37,2.37,0,0,1,4.85,15c-.09,0-.18-.12-.29,0h0l-.44-.11s0,0-.08-.08-.11-.25-.22-.34a.06.06,0,0,1,0-.09s.06,0,.09,0l.26.08a.32.32,0,0,0,.26,0c-.17-.06-.29-.18-.46-.16s-.06,0-.09,0a1.87,1.87,0,0,0-.65-.19.19.19,0,0,1-.08,0A2.57,2.57,0,0,0,2.73,14s-.08,0-.09-.06.06,0,.09,0a2.83,2.83,0,0,1,.5,0c.06,0,.11,0,.17,0a2.62,2.62,0,0,1,.74,0c.17,0,.33.09.5,0s.09,0,.13,0A2.48,2.48,0,0,0,5,14c.14,0,.29,0,.43,0a.44.44,0,0,1,.19,0,.75.75,0,0,0,.49,0,.34.34,0,0,1,.28,0,.62.62,0,0,1,.25.14.12.12,0,0,0,.15,0s.07,0,.08,0,.1.08.17.1a.74.74,0,0,1,.29.08,1.4,1.4,0,0,0,.31.09s.06,0,.09,0L8,14.38s.07,0,.06-.06a.12.12,0,0,0-.13,0,1,1,0,0,1-.43,0c-.08,0-.13-.07-.2-.09A5.08,5.08,0,0,1,6.46,14l-.11,0c-.16,0-.32,0-.48-.05a2.16,2.16,0,0,0-.44,0,.45.45,0,0,1-.2,0,.32.32,0,0,0-.14,0,.31.31,0,0,1-.16,0,4.91,4.91,0,0,1-.67-.08l-.15,0c-.2,0-.41,0-.61-.06s-.26,0-.37-.06-.51-.08-.77-.1a1.51,1.51,0,0,0-.37,0,.94.94,0,0,1-.29,0,1.78,1.78,0,0,0-.46,0,.74.74,0,0,1-.58-.14.41.41,0,0,0-.24-.08,1.92,1.92,0,0,1-.24,0c-.06,0-.11,0-.18,0A3.12,3.12,0,0,0,.37,13.74ZM2,14l.17,0c.19,0,.37.07.56.06s.07,0,.06.08,0,.09,0,.1.06,0,.07-.07,0,0,.06,0a2.35,2.35,0,0,1,.52.14c.07,0,.09.1.06.18s0,.07,0,.09.1,0,.14.07a.07.07,0,0,1,0,.11s-.06.06-.09,0-.28,0-.4-.11,0,0-.07,0-.22-.07-.34,0-.06,0-.08,0a.27.27,0,0,0-.19-.11.61.61,0,0,1-.34-.12.07.07,0,0,0-.06,0c-.16,0-.18-.11-.24-.19S2,14,2,14ZM2,14.42a7.71,7.71,0,0,0,.82.24c.07,0,.09.06.05.13a.51.51,0,0,1-.16.13h0c0-.09-.14-.07-.21-.1h0c-.15-.17-.39-.19-.56-.33l-.08-.05c-.23,0-.4-.19-.62-.24,0,0-.09-.06-.12-.13a.81.81,0,0,1,.42.14A2.7,2.7,0,0,0,2,14.42Zm-.61-.55a.34.34,0,0,0,.17,0c.1,0,.28.14.3.24s0,0,0,.06-.06,0-.08,0l0-.06s0,0-.05,0S1.49,14,1.41,14l-.28-.07a.46.46,0,0,1-.3-.23A1.65,1.65,0,0,0,1.35,13.87Z"/><path class="cls-1" d="M19,15.62l-.18,0s0,0,0-.05,0,0,0,0l.47,0c.06,0,.11,0,.12,0s-.06-.07-.1-.07a5.61,5.61,0,0,0-.82,0s-.1,0-.1.06.07,0,.11,0,.14,0,.16.15h.43A.09.09,0,0,0,19,15.62Z"/><path class="cls-1" d="M7.18,16.16c.29-.05.59,0,.88-.06,0,0,0-.06-.07-.05a5.82,5.82,0,0,1-.59,0H7.34a3.27,3.27,0,0,1-.7.08.48.48,0,0,0-.23.07A6.54,6.54,0,0,0,7.18,16.16Z"/><path class="cls-1" d="M13.42,22.94c0-.7,0-1.4,0-2.13s0-1.15,0-1.72a2.85,2.85,0,0,0,0-.29,2.19,2.19,0,0,0,0-.36,4,4,0,0,0,0-.77V17.6a2.62,2.62,0,0,0,0-.74c0-.25-.05-.5-.1-.75a.22.22,0,0,1,0-.08s0,0,0,0,0,0,0-.07v-.11a.41.41,0,0,1,.09-.28.08.08,0,0,0,0-.1l-.09-.08h0a.11.11,0,0,1,0-.12.23.23,0,0,0,.06-.25c0-.08,0-.1.08-.11a.37.37,0,0,0,.3-.56l-.06-.12a.11.11,0,0,1,0-.14c.12-.2.26-.38.39-.57a3.65,3.65,0,0,1,.18-.34,2.82,2.82,0,0,0,.29-.39.07.07,0,0,1,.09,0l.1,0c.08,0,.11,0,.1-.11s0-.09.09-.08a.26.26,0,0,0,.21-.11l.18-.17h0s0,0,0,.05l0,.09a.17.17,0,0,0,0,.14q0,.1.12,0a3.82,3.82,0,0,0,.36-.34l0-.06s.05,0,.08,0a0,0,0,0,1,0,.07c-.11.1-.16.24-.26.34s-.09.23-.13.35.06.07.09.09h0c0,.06-.06.09-.09.13a2.42,2.42,0,0,1-.74.61.31.31,0,0,0-.15.23c.19-.13.43-.12.57-.3l.05,0c.24,0,.39-.21.58-.32a3.13,3.13,0,0,0,.42-.29c.11-.09.23-.15.33-.24a2.24,2.24,0,0,0,.37-.32s.06,0,.08-.05a1.14,1.14,0,0,0,.42-.26s.08,0,0-.09-.07,0-.1,0l-.06,0a.2.2,0,0,1-.2,0c-.07,0,0-.08,0-.12s0-.06-.07,0-.13,0-.17,0,.05-.06.08-.08a5.59,5.59,0,0,0,.6-.46.53.53,0,0,1,.31-.15.32.32,0,0,0,.28-.26.74.74,0,0,1,.24-.31,4.19,4.19,0,0,1,.33-.26l.09-.05c.12,0,.14-.13.16-.22s0-.05,0-.06a.06.06,0,0,0-.06,0c-.06.08-.1,0-.14,0a.23.23,0,0,0-.07-.07s0,0,0-.08l0,0c.23-.33.47-.65.69-1A3.16,3.16,0,0,0,20,8.27.11.11,0,0,1,20,8.2l.08-.14a4.78,4.78,0,0,0,.32-.64c.15-.46.32-.93.46-1.4a14.38,14.38,0,0,0,.48-2,4.91,4.91,0,0,1,.31-1.12s0,0,0-.06c-.18.16-.43.26-.62.43l-.22.16a2.13,2.13,0,0,0-.45.34c-.24.24-.5.46-.75.69a1.73,1.73,0,0,0-.21.17c-.17.2-.37.36-.55.55a1.9,1.9,0,0,1-.21.19,6.36,6.36,0,0,0-.93.94l-.31.35a2.19,2.19,0,0,1,.06-.33,7,7,0,0,1,.24-.9c.06-.24.1-.48.14-.71a4.71,4.71,0,0,0,0-.92,1.53,1.53,0,0,1,0-.37,4.54,4.54,0,0,0,0-1,1.82,1.82,0,0,1,0-.57s0-.06,0-.12a2.5,2.5,0,0,1-.38.45,4.15,4.15,0,0,0-.75.76c0,.06-.1.11-.15.17a2.54,2.54,0,0,0-.29.36,2.6,2.6,0,0,1-.33.4,5.43,5.43,0,0,0-.58.69c0,.09-.1.13-.15.2a10.38,10.38,0,0,0-.59.88,2,2,0,0,0-.32.66.16.16,0,0,1,0,.1c-.05,0,0-.06,0-.1s0-.34,0-.51a6.66,6.66,0,0,0-.11-1L14,3.81s0-.05,0-.07l0-.18a.05.05,0,0,1,0-.08c0-.25-.12-.48-.18-.72s-.23-.68-.31-1a3.34,3.34,0,0,0-.3-.76C13.1.83,13,.71,12.94.58A5,5,0,0,1,12.71,0L12.6.3c-.07.2-.18.37-.26.56a4.46,4.46,0,0,0-.22.89.94.94,0,0,1-.16.46.64.64,0,0,0-.12.34,5.28,5.28,0,0,1-.21.78,2.07,2.07,0,0,0-.14.42,6.35,6.35,0,0,1-.22,1v0c0,.06,0,.07-.09,0l0,0c-.18-.27-.4-.49-.58-.75a1.42,1.42,0,0,0-.22-.28.6.6,0,0,1-.1-.23L9.91,3a6.06,6.06,0,0,0-.57-.79.25.25,0,0,1-.08-.12.66.66,0,0,0-.14-.2A4.45,4.45,0,0,1,9,2.64a4.13,4.13,0,0,0-.21.84.22.22,0,0,1,0,.16,2.32,2.32,0,0,0-.11.63c0,.33,0,.66-.05,1,0,.17,0,.34,0,.54a1.11,1.11,0,0,1-.22-.29,6,6,0,0,0-.6-.73s-.07,0-.07-.1a4,4,0,0,0-.5-.41l-.55-.42c-.24-.19-.52-.33-.75-.54h0a.73.73,0,0,1-.31-.24l-.15-.19a3.48,3.48,0,0,1,0,.8,2.35,2.35,0,0,0,0,.65c.06.42.11.83.17,1.25,0,.22.05.44.1.65A6.8,6.8,0,0,0,6,7.46a5.83,5.83,0,0,1,.22.71,3.81,3.81,0,0,1,.23.5l.22.45a2.14,2.14,0,0,1,.1.22h0s.36.73.36.76-.23-.08-.56-.25-.89-.41-1.05-.48l0,0c-.13-.09-.28-.13-.41-.22A.68.68,0,0,0,4.84,9a.86.86,0,0,1-.28-.11A3.45,3.45,0,0,0,4,8.76c-.35-.09-.71-.14-1.06-.2l-.63-.12c-.17,0-.33-.09-.5-.12s-.19,0-.27,0h-.1a.31.31,0,0,1-.19,0c-.2,0-.41,0-.61-.06,0,0-.08,0-.08.09a3.07,3.07,0,0,1,.26.43,3.23,3.23,0,0,0,.48.7,5.59,5.59,0,0,0,.67.71.78.78,0,0,1,.33.24h0a2.85,2.85,0,0,0-.65,0,.27.27,0,0,1-.18-.05H1.46a.05.05,0,0,1-.08,0c-.38,0-.74.09-1.12.1,0,0-.06,0-.06,0s0,0,0,.06a2.18,2.18,0,0,1,.31.22,7,7,0,0,0,.9.73c.24.16.49.33.75.47s.44.26.67.37.41.24.61.36c0,0,.07,0,.07,0l.05,0a2.85,2.85,0,0,1,.6.31,5.47,5.47,0,0,0,.69.33l.15.06s.1.07.16,0c-.09-.17-.09-.17.11-.18a.62.62,0,0,0,.18,0,.55.55,0,0,0-.24-.05,1.45,1.45,0,0,1-.55-.09l-.32-.11s-.06,0-.06-.05,0,0,.08,0l.37.1s.06,0,.1,0A.29.29,0,0,0,4.66,13c-.15,0-.3-.07-.46-.08l0,0a1.89,1.89,0,0,0-.58-.25c-.06,0-.14,0-.13-.14s.1-.09.19-.07.07,0,.11,0a1.49,1.49,0,0,0-.25-.13.12.12,0,0,1-.11-.1A.2.2,0,0,0,3.25,12c0-.08.14-.11.16-.18l0,0c.18,0,.38,0,.54.07A1.65,1.65,0,0,0,4.4,12c0-.17,0-.17-.11-.22a1,1,0,0,1-.41-.2.18.18,0,0,0-.13,0,.16.16,0,0,1-.18-.17.25.25,0,0,1-.26,0,1.7,1.7,0,0,1-.41-.18.15.15,0,0,1-.06-.2s0-.07.07-.07a.49.49,0,0,1,.27,0,.11.11,0,0,0,.08,0,.8.8,0,0,1,.49.23c.18.14.39.25.58.38l.07,0a6.92,6.92,0,0,0,.77.52,6.43,6.43,0,0,0,1.35.71c.2.08.41.17.61.27a9.25,9.25,0,0,0,.94.38c.22.08.42.18.63.25a.47.47,0,0,0,.32,0c-.19-.11-.4-.11-.56-.26a.2.2,0,0,1,.21,0c.08,0,.18,0,.26,0s.06,0,.06,0a.05.05,0,0,0,0-.07h0c-.09,0-.1-.06-.09-.13s0,0,0-.08a.14.14,0,0,0-.12-.17A.19.19,0,0,1,8.54,13v0c-.1,0-.12-.11-.19-.12s-.13-.08-.16-.15,0-.12.07-.12a.14.14,0,0,1,.1.05.11.11,0,0,0,.16,0c0-.06-.06-.11,0-.18s0-.1.09-.08.19,0,.25.07.06,0,.09,0L9,12.38a.09.09,0,0,1,.15,0l0,0a.06.06,0,0,0,.08,0,0,0,0,0,0,0-.07A1.73,1.73,0,0,0,9,12.14a1.5,1.5,0,0,1-.37-.34.41.41,0,0,0-.31-.19s-.07,0-.08,0,0,0,.07,0,.07,0,.06-.06a.39.39,0,0,1,0-.14c0-.18,0-.21-.2-.26s-.07,0-.08,0,0-.06.06-.08l.11-.09c.15.19.35.34.49.53a2.61,2.61,0,0,0,.31.27,4,4,0,0,1,.4.32l.12.08s.07,0,.08,0,0-.06,0-.07a.7.7,0,0,1-.16-.13s0,0,0-.09,0,0,.08,0a.06.06,0,0,0,.08,0,1.53,1.53,0,0,1-.28-.29c0-.05-.11-.07-.16-.11s-.08-.06,0-.12.09-.08.14-.05a.25.25,0,0,0,.19,0,.13.13,0,0,1,.12.06c.05.06.09,0,.14,0s.05-.08,0-.14L9.61,11c0-.07.09,0,.12-.08a.08.08,0,0,0,0,0l-.06-.09s-.08,0-.05-.09a.1.1,0,0,1,.13,0c.18.13.38.23.47.46a.1.1,0,0,1,0,.09c0,.09,0,.14.09.17s.16,0,.14.16l0,0s0,0,0,0a.43.43,0,0,0-.07-.29.28.28,0,0,0-.07-.09.26.26,0,0,1-.07-.26.42.42,0,0,0-.09-.35,1.44,1.44,0,0,1-.2-.39,0,0,0,0,1,0-.06s0,0,0,0a.28.28,0,0,0,.09.13.45.45,0,0,1,.14.24.13.13,0,0,0,.1.12.17.17,0,0,1,.12.14.49.49,0,0,0,.3.34.08.08,0,0,0,0-.12s0-.07,0-.11,0-.08.05-.09.06,0,.07.06a.46.46,0,0,0,.11.16.43.43,0,0,1,.14.3c0,.12,0,.16-.16.13s0,0-.07,0a.06.06,0,0,0,0,.07,1.58,1.58,0,0,1,.21.38c.08.13.08.29.17.41s0,0,.06,0,0,0,0-.07,0-.1,0-.17a.2.2,0,0,1,.07.23c0,.07-.05.12,0,.16a.08.08,0,0,1,0,.12.09.09,0,0,0,0,.13.34.34,0,0,1,.09.15s0,.08.06.09.1.14.14.21,0,.1,0,.12-.05.05,0,.09a.79.79,0,0,1,.09.23s.07.06.1.1.08.12,0,.19-.06.07,0,.11.13.14.25.16a.18.18,0,0,1,.14.18.44.44,0,0,0,.19.3l.07.07c.05.05.1.1.18,0s.07,0,.08,0A1,1,0,0,0,13,15a0,0,0,0,0,0,0h0s0,0,0,0h0l0,0v.05l.06,0s0,0,0,0a2,2,0,0,1,.1.48c0,.43.06.85.07,1.28v.1l0,0v0h0v.22a.5.5,0,0,1,0,.12l0,0s0,0,0,0,0,0,0,0v.05c0,.2,0,.41,0,.61s0,.43,0,.64-.05.25-.05.38a.11.11,0,0,1-.08.13l0,.06h0l0,0,0,0s0,.06,0,.1l.06.18h0c0,.11,0,.22,0,.33,0,.87-.06,1.72-.05,2.55m.46.39c0-1-.05-2,0-3.06a.64.64,0,0,0,0-.25.8.8,0,0,0,0,.23c-.06.88,0,1.69,0,2.51M2.21,10.78h.07a.44.44,0,0,1,.32.13.09.09,0,0,1,0,.13.09.09,0,0,1-.14,0,1.24,1.24,0,0,0-.3-.16s-.08,0-.07-.08S2.18,10.79,2.21,10.78ZM3.1,12.1a.55.55,0,0,1-.42,0,0,0,0,0,1,0-.09.42.42,0,0,1,.16,0,.45.45,0,0,1,.23,0s.06,0,.06.05S3.12,12.09,3.1,12.1Zm.15-.46.08,0s0,.05,0,.09a.2.2,0,0,1-.26.06.47.47,0,0,0-.21-.06.91.91,0,0,1-.53-.18.11.11,0,0,0-.09,0,.55.55,0,0,1-.33-.12s-.11-.06-.1-.13A.3.3,0,0,1,2,11.15H2a.21.21,0,0,1,.18.06.33.33,0,0,0,.28.12.34.34,0,0,1,.17.05A4.41,4.41,0,0,0,3.25,11.64Zm5,.74s0-.1.06-.1,0,.07,0,.1a.33.33,0,0,1,0,.1s0,0,0,0a.06.06,0,0,1-.07,0A.11.11,0,0,1,8.29,12.38Zm1.15-1.86s-.09,0-.06-.08l0-.06s0-.09.07-.08.06,0,.06.12S9.52,10.52,9.44,10.52Zm.16,0v0h0a0,0,0,0,1,0,0S9.61,10.57,9.6,10.56Zm.32-3.11c-.09,0-.09,0-.09.09v0s0,.11-.06.11-.07-.06-.08-.1-.11-.24-.16-.35,0-.09.06-.07h.06a0,0,0,0,0,0,0,.08.08,0,0,0,0-.07h0c-.17,0-.19-.08-.11-.23a.09.09,0,0,1,.08,0H9.7c.2,0,.25,0,.32.23a1.15,1.15,0,0,1,0,.32A.13.13,0,0,1,9.92,7.45Zm2.73,5.66c-.1-.15-.15-.32-.24-.46a4.91,4.91,0,0,0-.28-.5s-.06-.08,0-.13,0-.12,0-.18,0,0-.05.06-.07,0-.1,0a.79.79,0,0,1-.23-.43.29.29,0,0,0,0-.16.89.89,0,0,1-.15-.38c0-.11-.08-.21-.12-.32a2.55,2.55,0,0,0-.27-.66c-.05-.06,0-.14-.05-.19A.61.61,0,0,1,11,9.42a1,1,0,0,0-.19-.52l0,0c0-.06,0-.15,0-.18s.12,0,.14.1S11,8.89,11,9h0c0,.09.14,0,.11.15s0,.12,0,.19,0-.13,0-.19,0-.08.06-.08.06,0,.07.08a1.38,1.38,0,0,1,0,.2,4.58,4.58,0,0,0,.23,1.1s0,0,0,.05.15.34.28.5.05.21.07.32,0,.09,0,.12a1.2,1.2,0,0,1,.18.38,1.52,1.52,0,0,0,.27.54.56.56,0,0,1,.09.21,2.78,2.78,0,0,1,.18.48A.14.14,0,0,1,12.65,13.11Zm1-.08s0,0,0,0,0,0,0,0,0-.18.06-.26,0-.06.09-.07A.44.44,0,0,1,13.65,13Zm0-.93h0s0,0,0-.07S13.69,12.08,13.66,12.1Zm.09.54s0,0,0-.06h0S13.79,12.63,13.75,12.64Zm.2-.44a1.31,1.31,0,0,0-.08.21c0,.05,0,.1-.1.1v0c0-.07,0-.14,0-.21a1.4,1.4,0,0,0,0-.76.26.26,0,0,1,0-.21.16.16,0,0,1,.16-.08s0,0,0,0,0-.05,0-.06-.1,0-.1-.11-.06-.37,0-.55a.08.08,0,0,0,0-.11s-.11-.05-.14,0-.1,0-.16,0a.38.38,0,0,1,0-.31,6.42,6.42,0,0,0,.1-.75c0-.42.15-.82.18-1.24a1.34,1.34,0,0,1,.11-.51c0-.09.08-.13.17-.09s0-.13,0-.19,0,0,0-.06.06,0,.06,0a.2.2,0,0,0,.11.21.36.36,0,0,1,.08.23c0,.05-.07.09-.12.06a.24.24,0,0,1-.06-.08c0-.06-.06-.06-.09,0s0,.09-.09.08-.07,0-.08.05,0,.2,0,.28,0,0,0,0,0,0,.05,0a.13.13,0,0,0,0-.07.12.12,0,0,1,.09-.09A.17.17,0,0,0,14.23,8a.2.2,0,0,1,.18-.06s.07,0,.07.07.06.18,0,.27a.3.3,0,0,0,0,.13.17.17,0,0,1,0,.14,1.41,1.41,0,0,0,0,.46.43.43,0,0,1,0,.19.32.32,0,0,0,0,.3s0,.06,0,.08.05,0,.08,0,0,0,0,.06-.07,0-.08,0-.06,0-.06.1a.64.64,0,0,1,0,.36s0,.1.07.11.11.15.06.21a.81.81,0,0,0-.15.52c0,.12-.13.19-.09.32s0,.21-.06.31a1.78,1.78,0,0,0-.13.45A1.53,1.53,0,0,1,14,12.2Zm.75-.58c-.07.15-.07.31-.13.46s0,.17-.05.25a2.67,2.67,0,0,1-.13.4,2.35,2.35,0,0,0-.11.35c0,.12-.12.19-.17.29a0,0,0,0,1,0,0s0,0,0,0,0-.06,0-.08a2.14,2.14,0,0,1,.16-.42.64.64,0,0,0,.1-.33.19.19,0,0,1,0-.08c.11-.24.15-.51.24-.75a1,1,0,0,1,.07-.15,0,0,0,0,1,.06,0s0,0,0,0A0,0,0,0,1,14.7,11.62ZM15,5.84s0,.06,0,.1,0,.18,0,.26a.2.2,0,0,0,0,.15.62.62,0,0,1,0,.32l-.11-.15a.33.33,0,0,1-.06-.33c0-.12.08-.24.11-.37A.34.34,0,0,1,15,5.64s0,0,.08,0,0,0,0,.08A.14.14,0,0,1,15,5.84Zm1.36,1.84a.69.69,0,0,1,.3-.58s0,0,.07,0,0,.05,0,.07a.38.38,0,0,0-.12.29C16.6,7.58,16.49,7.62,16.37,7.68Zm1-2.79a.42.42,0,0,1,.08-.21.06.06,0,0,1,0,0,.07.07,0,0,1,.05.09c0,.06-.05.11-.07.17s0,.11-.08.09S17.36,4.93,17.36,4.89Zm0,.31s.08,0,.1,0,0,.07,0,.1l0,0s0,.08-.09.06,0-.06-.05-.12A.11.11,0,0,1,17.33,5.2Zm-.08.5a.73.73,0,0,1-.11.26,2,2,0,0,0-.16.4,1.15,1.15,0,0,0-.07.28c0,.1-.13.14-.19.22s0,0,0,0a.83.83,0,0,1,0-.15,2.15,2.15,0,0,0,.14-.54.19.19,0,0,1,0-.08,2.88,2.88,0,0,1,.3-.39.07.07,0,0,1,.06,0S17.25,5.66,17.25,5.7Zm-.93-.08.15-.27,0-.07a.67.67,0,0,1,.26-.5.24.24,0,0,0,0-.14.27.27,0,0,1,.38-.17s0,0,0,.1,0,.08,0,.1-.09.12-.13.18S17,5,17.07,5s0,0,0,.08a.85.85,0,0,0,0,.16.31.31,0,0,1-.11.27c-.08.07-.09.19-.2.24a.1.1,0,0,1-.13,0,.15.15,0,0,0-.18,0,.09.09,0,0,1-.14,0C16.27,5.73,16.28,5.68,16.32,5.62Zm-.16,1.07a.38.38,0,0,0,0,.1c0,.09,0,.18-.15.19s-.08.09-.08.16a1.08,1.08,0,0,0,0,.18.09.09,0,0,1-.12.08s0-.05,0-.08a.91.91,0,0,1,.13-.54,1,1,0,0,0,.11-.3.84.84,0,0,1,.17-.4A.55.55,0,0,1,16.56,6s.05,0,0,.08a.5.5,0,0,0,0,.21.3.3,0,0,1,0,.26.34.34,0,0,0,0,.12s0,.08-.06.08a.21.21,0,0,0-.18.2.17.17,0,0,1,0-.21s0-.09,0-.11S16.18,6.65,16.16,6.69Z"/><path class="cls-1" d="M17.73,14.92s-.08,0-.1,0,.1,0,.15,0a.21.21,0,0,0,.15,0s0,0,0,0-.32,0-.48,0-.08,0-.08.1A.8.8,0,0,1,17,15h-.58a0,0,0,0,0,0,0s0,0,0,0,0,0,.05,0a.46.46,0,0,1,.38.07.26.26,0,0,0,.15,0l.72,0c.06,0,.08,0,.1-.09S17.77,15,17.73,14.92Z"/><path class="cls-1" d="M16.65,13.93s0,0,0,0-.17,0-.2-.1,0,0-.07,0a1.08,1.08,0,0,1-.49.18l0,0-.5.21a.33.33,0,0,0-.18.17c.52-.11,1-.33,1.49-.42A.05.05,0,0,0,16.65,13.93Z"/><path class="cls-1" d="M15.36,13.3a0,0,0,0,0,0-.06.53.53,0,0,0-.2-.13c-.08,0-.16.06-.15.11a.19.19,0,0,1-.07.21l-.16.24a0,0,0,0,0,0,.06h0A1.91,1.91,0,0,0,15.36,13.3Z"/><path class="cls-1" d="M16.53,14.33a2.78,2.78,0,0,0-.82.18s0,0,0,0a1.29,1.29,0,0,1,.33,0,.17.17,0,0,0,.22-.09.13.13,0,0,1,.09-.06A.28.28,0,0,0,16.53,14.33Z"/><path class="cls-1" d="M19.88,15.28h.37a.67.67,0,0,0,.34,0,7.36,7.36,0,0,0-1.05,0A.67.67,0,0,0,19.88,15.28Z"/><path class="cls-1" d="M18.75,11.51a.58.58,0,0,0-.17.14s0,0,0,0a.07.07,0,0,0,.05,0h0l.15-.17s0,0,0,0S18.77,11.51,18.75,11.51Z"/><path class="cls-1" d="M17.92,15.3a0,0,0,0,0,0,0,0,0,0,0,0,.06,0l0,0S17.94,15.3,17.92,15.3Z"/><path class="cls-1" d="M20.9,9.45s0,0,0,0,0,0,0,0a0,0,0,0,0,0,0S20.89,9.45,20.9,9.45Z"/><path class="cls-1" d="M9.06,14l.06,0a2.85,2.85,0,0,1,.63.19.38.38,0,0,0,.31,0,.7.7,0,0,1,.55.1.57.57,0,0,0,.34,0s.05,0,.06-.05,0,0-.06-.05l-.1,0c-.06,0-.1-.1-.17-.1s-.2-.1-.28-.18-.05-.13,0-.17a.15.15,0,0,1,.17,0l.37.13s.06,0,.09,0,0-.05,0-.08a4,4,0,0,0-.38-.32,1.57,1.57,0,0,0-.25-.2,0,0,0,0,0-.06,0s0,0,0,0,.08.09.11.13-.12,0-.1.09,0,.13-.13.13-.06,0-.05.07a1.17,1.17,0,0,0,.06.2c0,.09,0,.17-.09.16a1.19,1.19,0,0,1-.32,0c-.19,0-.39-.06-.58-.12A.14.14,0,0,0,9.06,14Z"/><path class="cls-1" d="M8,14.94l0,0H7.83a1.39,1.39,0,0,1-.41,0,.49.49,0,0,0-.17,0,.52.52,0,0,1-.17,0,.29.29,0,0,0-.16,0,.69.69,0,0,1-.32,0,.22.22,0,0,0-.22.1.24.24,0,0,0,0,.22s.06.08.11.08.07,0,.09-.09.07-.11.15-.05.16.06.22.13a.09.09,0,0,0,.13,0,.38.38,0,0,1,.21,0s0,0,.06,0,.17,0,.25,0,.07,0,.07,0,0-.08.1-.06,0,0,0,0S7.9,15,8,15,8,15,8,14.94Z"/><path class="cls-1" d="M8.47,14.92a.16.16,0,0,0-.16,0s0,.08.09.1a.85.85,0,0,0,.47.15,3.62,3.62,0,0,0,.46-.06A.18.18,0,0,0,9.45,15c0-.08-.09-.07-.14-.07a3.08,3.08,0,0,0-.53,0A.65.65,0,0,1,8.47,14.92Z"/><path class="cls-1" d="M10.11,12.71a0,0,0,0,0-.07,0s0,0,0,.07a.81.81,0,0,0,.12.14l.8.67a.24.24,0,0,0,.23.09,1.63,1.63,0,0,1-.41-.42l0,0a2.52,2.52,0,0,1-.35-.3C10.31,12.83,10.19,12.8,10.11,12.71Z"/><path class="cls-1" d="M7.58,15.79a1.67,1.67,0,0,1-.38.06H7a.27.27,0,0,0-.25.17.35.35,0,0,0,.21,0A.17.17,0,0,1,7,16a7.89,7.89,0,0,0,.85-.1s.07,0,.06-.06,0-.05,0-.05A1.12,1.12,0,0,0,7.58,15.79Z"/><path class="cls-1" d="M10.84,13.16a.6.6,0,0,1,.23.1l.08.05a.09.09,0,0,0,.09,0s0-.05,0-.08-.11-.29-.29-.33c0,0,0,0,0,0a.1.1,0,0,0-.12,0c-.06,0-.08.1-.11.15S10.77,13.16,10.84,13.16Z"/><path class="cls-1" d="M10.65,14.75a.56.56,0,0,1-.31-.06,2,2,0,0,0-.35-.11.05.05,0,0,0-.07,0s0,.05,0,.07a1.11,1.11,0,0,0,.19.09.1.1,0,0,1,.08.08c0,.08.08.12.15.07a.21.21,0,0,1,.23,0s.06,0,.09,0,.13,0,.14-.05-.07-.09-.12-.11Z"/><path class="cls-1" d="M9.81,12a0,0,0,0,0,0,0s-.07-.12-.11-.11a0,0,0,0,0,0,0A.2.2,0,0,0,9.81,12Z"/><path class="cls-1" d="M5.49,9.22s0,0,0,0a0,0,0,0,0,0,0s0,0,0,0S5.48,9.23,5.49,9.22Z"/><path class="cls-1" d="M13.94,9.69a0,0,0,0,0-.06,0,.06.06,0,0,0,0,.07.51.51,0,0,1,.06.25v.17c0,.06,0,.1.06.16s0,.13.07.11,0-.08,0-.13S14,9.89,13.94,9.69Z"/><path class="cls-1" d="M14.33,10.31s0,0,0,0a0,0,0,0,0,0,0v0S14.31,10.32,14.33,10.31Z"/><path class="cls-1" d="M14.36,8.93l0,0s0,0,0,0a0,0,0,0,0,0,.06Z"/><path class="cls-1" d="M13.55,19.15a5,5,0,0,0,.08-.66,15.37,15.37,0,0,0-.05-2.25,1.64,1.64,0,0,0,0-.23l0,0a.3.3,0,0,0,0,.13c0,.17,0,.33,0,.5l0,.71c0,.31,0,.62,0,.93s-.05.46,0,.69a.5.5,0,0,1,0,.17S13.52,19.15,13.55,19.15Z"/></g></g></svg>